<?xml version="1.0" standalone="no"?>
<svg viewBox="0 0 200 200" xmlns="http://www.w3.org/2000/svg">
  <path fill="#EEEFF2" d="M29,-41.2C37.3,-33.9,43.7,-25.1,51.4,-13.8C59.2,-2.5,68.3,11.3,65.4,21.5C62.4,31.6,47.4,38.1,34.5,47.9C21.6,57.6,10.8,70.6,-3.3,75.1C-17.3,79.6,-34.7,75.6,-48.6,66.2C-62.5,56.8,-72.9,41.9,-75.3,26.4C-77.6,10.9,-71.9,-5.3,-67.1,-22.3C-62.3,-39.4,-58.5,-57.3,-47.4,-63.8C-36.4,-70.3,-18.2,-65.4,-3.9,-60C10.3,-54.6,20.7,-48.6,29,-41.2Z" transform="translate(100 100)" />
</svg>
