<?xml version="1.0" standalone="no"?>
<svg viewBox="0 0 200 200" xmlns="http://www.w3.org/2000/svg">
  <path fill="#EEEFF2" d="M28.4,-38.7C41.6,-35.8,60.2,-35.9,70.2,-28C80.1,-20.1,81.3,-4.1,72.2,5.4C63,14.8,43.5,17.8,31.4,21.3C19.2,24.9,14.5,29,7.5,35.5C0.6,42.1,-8.6,51.2,-18.3,52.8C-28.1,54.3,-38.5,48.3,-38.9,38.8C-39.4,29.2,-29.9,16.1,-36.5,2.3C-43,-11.4,-65.5,-25.8,-66.7,-33.5C-67.9,-41.3,-47.9,-42.3,-33.3,-44.6C-18.6,-46.8,-9.3,-50.2,-0.8,-48.9C7.6,-47.6,15.3,-41.6,28.4,-38.7Z" transform="translate(100 100)" />
</svg>
